<?xml version="1.0" encoding="UTF-8"?>
<svg width="48" height="48" viewBox="0 0 48 48" fill="none" xmlns="http://www.w3.org/2000/svg">
    <rect width="48" height="48" rx="24" fill="#2563EB"/>
    <path d="M38.5 16.7C38.2 15.8 37.5 15.1 36.6 14.8C34.9 14.2 24 14.2 24 14.2C24 14.2 13.1 14.2 11.4 14.8C10.5 15.1 9.80001 15.8 9.50001 16.7C8.90001 18.4 8.90001 24 8.90001 24C8.90001 24 8.90001 29.6 9.50001 31.3C9.80001 32.2 10.5 32.9 11.4 33.2C13.1 33.8 24 33.8 24 33.8C24 33.8 34.9 33.8 36.6 33.2C37.5 32.9 38.2 32.2 38.5 31.3C39.1 29.6 39.1 24 39.1 24C39.1 24 39.1 18.4 38.5 16.7Z" fill="white"/>
    <path d="M21 28.5L29 24L21 19.5V28.5Z" fill="#2563EB"/>
</svg>
